<svg width="109" height="26" viewBox="0 0 109 26" fill="none" xmlns="http://www.w3.org/2000/svg">
<g clip-path="url(#clip0_1_9865)">
<path fill-rule="evenodd" clip-rule="evenodd" d="M0.137939 24.632C0.137939 25.387 0.749939 26 1.50594 26H6.97994C7.73594 26 8.34794 25.387 8.34794 24.632V21.793C8.34794 21.038 8.96094 20.425 9.71694 20.425H10.5029C11.2579 20.425 11.8709 19.812 11.8709 19.056V15.636C11.8709 14.88 11.2579 14.267 10.5029 14.267H7.08194C6.32594 14.267 5.71294 14.88 5.71294 15.635V16.421C5.71294 17.177 5.09994 17.79 4.34494 17.79H1.50594C0.750939 17.79 0.137939 18.402 0.137939 19.158V24.632ZM8.34794 4.89C8.34794 5.646 8.96094 6.258 9.71694 6.258H10.5029C11.2579 6.258 11.8709 6.871 11.8709 7.627V10.364C11.8709 11.119 11.2579 11.732 10.5029 11.732H7.76594C7.58621 11.7321 7.40821 11.6968 7.24212 11.6282C7.07603 11.5595 6.92511 11.4587 6.79797 11.3317C6.67083 11.2046 6.56998 11.0538 6.50117 10.8877C6.43236 10.7217 6.39694 10.5437 6.39694 10.364V9.578C6.39694 8.822 5.78494 8.21 5.02894 8.21H1.50594C1.14312 8.21 0.795167 8.06587 0.538617 7.80932C0.282068 7.55277 0.137939 7.20482 0.137939 6.842V1.37C0.137939 0.613 0.749939 0 1.50594 0H6.97994C7.73594 0 8.34794 0.613 8.34794 1.369V4.89ZM19.8779 9.578C19.8779 8.822 20.4909 8.21 21.2469 8.21H24.7699C25.5249 8.21 26.1379 7.597 26.1379 6.841V1.37C26.1379 1.007 25.9939 0.658838 25.7374 0.40197C25.4809 0.145103 25.1329 0.000529927 24.7699 0L19.2959 0C18.9329 0.000264867 18.5849 0.144583 18.3282 0.401263C18.0715 0.657943 17.9272 1.006 17.9269 1.369V4.89C17.9269 5.646 17.3149 6.258 16.5589 6.258H15.7729C15.0179 6.258 14.4049 6.871 14.4049 7.627V10.364C14.4049 11.119 15.0179 11.732 15.7729 11.732H18.5099C19.2659 11.732 19.8789 11.119 19.8789 10.364L19.8779 9.578ZM26.1379 24.631C26.1379 25.386 25.5249 25.999 24.7689 25.999H19.2959C19.1162 25.9991 18.9382 25.9638 18.7721 25.8952C18.606 25.8265 18.4551 25.7257 18.328 25.5987C18.2008 25.4716 18.1 25.3208 18.0312 25.1547C17.9624 24.9887 17.9269 24.8107 17.9269 24.631V21.108C17.9269 20.353 17.3139 19.74 16.5589 19.74H15.7729C15.5932 19.74 15.4152 19.7046 15.2492 19.6358C15.0832 19.567 14.9323 19.4661 14.8053 19.339C14.6782 19.2118 14.5775 19.0609 14.5088 18.8948C14.4401 18.7287 14.4048 18.5507 14.4049 18.371V15.635C14.4049 14.879 15.0179 14.266 15.7729 14.266H18.5099C18.8729 14.2663 19.221 14.4106 19.4777 14.6673C19.7344 14.9239 19.8787 15.272 19.8789 15.635V16.42C19.8789 17.176 20.4909 17.789 21.2469 17.789H24.7689C25.5249 17.789 26.1379 18.401 26.1379 19.157V24.631Z" fill="#131313"/>
<path d="M36.494 20.9625C36.359 20.9625 36.292 20.8725 36.292 20.7605V5.41445C36.292 5.27945 36.359 5.18945 36.495 5.18945H44.449C46.882 5.18945 48.888 6.94745 48.888 9.85345C48.888 12.5805 47.446 14.1355 45.508 14.5415L49.023 20.6925C49.113 20.8505 49.046 20.9625 48.866 20.9625H46.454C46.3992 20.9622 46.3454 20.9476 46.298 20.92C46.2506 20.8925 46.2113 20.853 46.184 20.8055L42.669 14.6535H38.996V20.7375C38.996 20.8725 38.906 20.9635 38.77 20.9635L36.494 20.9625ZM38.996 12.4675H42.939C44.652 12.4675 46.184 12.0175 46.184 9.89945C46.184 7.80345 44.561 7.37545 42.939 7.37545H38.996V12.4675ZM51.344 20.9625C51.209 20.9625 51.096 20.8725 51.096 20.7375V9.92145C51.096 9.78645 51.209 9.69645 51.344 9.69645H53.44C53.575 9.69645 53.687 9.78645 53.687 9.92145V20.7375C53.687 20.8725 53.575 20.9635 53.44 20.9635L51.344 20.9625ZM50.938 6.66245C50.938 5.85245 51.592 5.19845 52.403 5.19845C53.214 5.19845 53.868 5.85145 53.868 6.66245C53.868 7.47445 53.214 8.12745 52.403 8.12745C52.2105 8.12785 52.0198 8.09022 51.8419 8.01674C51.664 7.94326 51.5023 7.83536 51.3662 7.69925C51.2301 7.56313 51.1222 7.40147 51.0487 7.22355C50.9752 7.04563 50.9376 6.85495 50.938 6.66245ZM60.955 25.9885C57.71 25.9885 55.705 24.3655 55.705 21.8185C55.705 21.6845 55.795 21.5935 55.93 21.5935H58.183C58.318 21.5935 58.408 21.6835 58.408 21.8195C58.408 22.8555 59.288 23.9595 60.955 23.9595C62.487 23.9595 63.839 23.3065 63.839 21.0305V18.6875H63.794C63.231 19.8585 62.081 20.8955 60.279 20.8955C57.304 20.8955 55.479 18.9805 55.479 15.3975C55.479 11.7015 57.259 9.47045 60.279 9.47045C62.171 9.47045 63.231 10.4625 63.794 11.9045H63.839V9.92145C63.839 9.78645 63.929 9.69645 64.064 9.69645H66.318C66.453 9.69645 66.543 9.78645 66.543 9.92145V20.9855C66.543 24.6585 64.064 25.9885 60.955 25.9885ZM58.183 15.1705C58.183 17.6945 59.423 18.8665 61.113 18.8665C62.667 18.8665 63.839 17.6945 63.839 15.1705C63.839 12.8505 62.667 11.4975 61.112 11.4975C59.422 11.4975 58.183 12.8495 58.183 15.1705ZM70.25 21.1885C70.0576 21.1887 69.867 21.151 69.6892 21.0775C69.5114 21.0039 69.3499 20.896 69.2138 20.7599C69.0778 20.6238 68.97 20.4622 68.8966 20.2843C68.8232 20.1065 68.7856 19.9159 68.786 19.7235C68.786 18.9125 69.439 18.2595 70.251 18.2595C71.061 18.2595 71.715 18.9125 71.715 19.7235C71.715 20.5345 71.061 21.1885 70.25 21.1885ZM78.035 21.1885C75.376 21.1885 73.303 18.9805 73.303 15.3975C73.303 11.8375 75.331 9.47045 78.035 9.47045C80.063 9.47045 81.123 10.6425 81.595 12.4005H81.641V5.52545C81.641 5.39045 81.731 5.30045 81.866 5.30045H84.006C84.142 5.30045 84.232 5.39045 84.232 5.52545V20.7375C84.232 20.8725 84.142 20.9635 84.007 20.9635H81.867C81.731 20.9635 81.641 20.8735 81.641 20.7375V18.6425H81.596C81.077 20.1745 79.972 21.1885 78.035 21.1885ZM76.007 15.3975C76.007 17.8755 77.247 19.1605 78.801 19.1605C80.379 19.1605 81.528 17.8755 81.528 15.3975C81.528 12.8505 80.378 11.4985 78.801 11.4985C77.247 11.4985 76.007 12.8505 76.007 15.3975ZM91.003 21.1885C87.713 21.1885 85.753 19.0025 85.753 15.2845C85.753 12.0845 87.713 9.47045 91.003 9.47045C94.18 9.47045 96.095 12.0845 96.095 15.5775C96.095 15.7355 96.028 15.8255 95.892 15.8255H88.456C88.569 17.9885 89.493 19.1605 91.07 19.1605C92.377 19.1605 93.098 18.6195 93.414 17.6505C93.459 17.5155 93.549 17.4475 93.662 17.4475H95.78C95.937 17.4475 96.005 17.5375 95.983 17.6955C95.464 19.6555 93.842 21.1885 91.003 21.1885ZM88.479 14.6315H93.301C93.301 12.7385 92.512 11.4985 91.003 11.4985C89.651 11.4985 88.682 12.4905 88.479 14.6315ZM100.436 20.9625C100.323 20.9625 100.233 20.9185 100.188 20.7825L96.019 9.87645C95.974 9.76345 96.019 9.69645 96.132 9.69645H98.633C98.701 9.69645 98.769 9.71845 98.791 9.83145L101.563 18.3265H101.608L104.334 9.83145C104.357 9.71845 104.424 9.69645 104.492 9.69645H106.993C107.106 9.69645 107.151 9.76345 107.106 9.87645L102.96 20.7825C102.915 20.9185 102.825 20.9625 102.712 20.9625H100.436Z" fill="#131313"/>
</g>
<defs>
<clipPath id="clip0_1_9865">
<rect width="108" height="26" fill="white" transform="translate(0.0200195)"/>
</clipPath>
</defs>
</svg>
